<?xml version="1.0" encoding="UTF-8" standalone="no"?>
<!DOCTYPE svg PUBLIC "-//W3C//DTD SVG 1.1//EN" "http://www.w3.org/Graphics/SVG/1.1/DTD/svg11.dtd">
<svg width="100%" height="100%" viewBox="0 0 1000 1000" version="1.1" xmlns="http://www.w3.org/2000/svg" xmlns:xlink="http://www.w3.org/1999/xlink" xml:space="preserve" xmlns:serif="http://www.serif.com/" style="fill-rule:evenodd;clip-rule:evenodd;">
    <g transform="matrix(-3.82857e-16,-1,1,-3.82857e-16,800,500)">
        <g transform="matrix(-0.62478,1.23764,1.23764,0.62478,366.204,-4.56529)">
            <path d="M25,-31.394C25,-33.384 23.384,-35 21.394,-35L-21.394,-35C-23.384,-35 -25,-33.384 -25,-31.394L-25,31.394C-25,33.384 -23.384,35 -21.394,35L21.394,35C23.384,35 25,33.384 25,31.394L25,-31.394Z" style="fill:white;stroke:black;stroke-width:1px;"/>
        </g>
        <g transform="matrix(-0.62478,1.23764,1.23764,0.62478,390.838,38.9309)">
            <text x="-19.688px" y="0px" style="font-family:'ArialMT', 'Arial', sans-serif;font-size:30px;">♣</text>
        </g>
    </g>
    <g transform="matrix(0.0804666,-0.996757,0.996757,0.0804666,799.027,524.14)">
        <g transform="matrix(-0.418159,1.32183,1.32183,0.418159,400.17,-66.4927)">
            <path d="M25,-31.394C25,-33.384 23.384,-35 21.394,-35L-21.394,-35C-23.384,-35 -25,-33.384 -25,-31.394L-25,31.394C-25,33.384 -23.384,35 -21.394,35L21.394,35C23.384,35 25,33.384 25,31.394L25,-31.394Z" style="fill:white;stroke:black;stroke-width:1px;"/>
        </g>
        <g transform="matrix(-0.418159,1.32183,1.32183,0.418159,431.462,-27.5113)">
            <text x="-19.688px" y="0px" style="font-family:'ArialMT', 'Arial', sans-serif;font-size:30px;">♣</text>
        </g>
    </g>
    <g transform="matrix(0.160411,-0.98705,0.98705,0.160411,796.115,548.123)">
        <g transform="matrix(-0.200707,1.37179,1.37179,0.200707,423.841,-132.37)">
            <path d="M25,-31.394C25,-33.384 23.384,-35 21.394,-35L-21.394,-35C-23.384,-35 -25,-33.384 -25,-31.394L-25,31.394C-25,33.384 -23.384,35 -21.394,35L21.394,35C23.384,35 25,33.384 25,31.394L25,-31.394Z" style="fill:white;stroke:black;stroke-width:1px;"/>
        </g>
        <g transform="matrix(-0.200707,1.37179,1.37179,0.200707,460.981,-98.9129)">
            <text x="-19.688px" y="0px" style="font-family:'ArialMT', 'Arial', sans-serif;font-size:30px;">♣</text>
        </g>
    </g>
    <g transform="matrix(0.239316,-0.970942,0.970942,0.239316,791.283,571.795)">
        <g transform="matrix(0.0219433,1.38622,1.38622,-0.0219433,436.774,-200.503)">
            <path d="M25,-31.394C25,-33.384 23.384,-35 21.394,-35L-21.394,-35C-23.384,-35 -25,-33.384 -25,-31.394L-25,31.394C-25,33.384 -23.384,35 -21.394,35L21.394,35C23.384,35 25,33.384 25,31.394L25,-31.394Z" style="fill:white;stroke:black;stroke-width:1px;"/>
        </g>
        <g transform="matrix(0.0219433,1.38622,1.38622,-0.0219433,478.8,-173.437)">
            <text x="-19.688px" y="0px" style="font-family:'ArialMT', 'Arial', sans-serif;font-size:30px;">♣</text>
        </g>
    </g>
    <g transform="matrix(0.316668,-0.948536,0.948536,0.316668,784.561,595)">
        <g transform="matrix(0.244025,1.36475,1.36475,-0.244025,438.801,-269.154)">
            <path d="M25,-31.394C25,-33.384 23.384,-35 21.394,-35L-21.394,-35C-23.384,-35 -25,-33.384 -25,-31.394L-25,31.394C-25,33.384 -23.384,35 -21.394,35L21.394,35C23.384,35 25,33.384 25,31.394L25,-31.394Z" style="fill:white;stroke:black;stroke-width:1px;"/>
        </g>
        <g transform="matrix(0.244025,1.36475,1.36475,-0.244025,484.624,-249.18)">
            <text x="-19.688px" y="0px" style="font-family:'ArialMT', 'Arial', sans-serif;font-size:30px;">♣</text>
        </g>
    </g>
    <g transform="matrix(0.391967,-0.919979,0.919979,0.391967,775.994,617.59)">
        <g transform="matrix(0.459787,1.30793,1.30793,-0.459787,430.033,-336.584)">
            <path d="M25,-31.394C25,-33.384 23.384,-35 21.394,-35L-21.394,-35C-23.384,-35 -25,-33.384 -25,-31.394L-25,31.394C-25,33.384 -23.384,35 -21.394,35L21.394,35C23.384,35 25,33.384 25,31.394L25,-31.394Z" style="fill:white;stroke:black;stroke-width:1px;"/>
        </g>
        <g transform="matrix(0.459787,1.30793,1.30793,-0.459787,478.467,-324.219)">
            <text x="-19.688px" y="0px" style="font-family:'ArialMT', 'Arial', sans-serif;font-size:30px;">♣</text>
        </g>
    </g>
    <g transform="matrix(0.464723,-0.885456,0.885456,0.464723,765.637,639.417)">
        <g transform="matrix(0.66364,1.21724,1.21724,-0.66364,410.859,-401.098)">
            <path d="M25,-31.394C25,-33.384 23.384,-35 21.394,-35L-21.394,-35C-23.384,-35 -25,-33.384 -25,-31.394L-25,31.394C-25,33.384 -23.384,35 -21.394,35L21.394,35C23.384,35 25,33.384 25,31.394L25,-31.394Z" style="fill:white;stroke:black;stroke-width:1px;"/>
        </g>
        <g transform="matrix(0.66364,1.21724,1.21724,-0.66364,460.649,-396.663)">
            <text x="-19.688px" y="0px" style="font-family:'ArialMT', 'Arial', sans-serif;font-size:30px;">♣</text>
        </g>
    </g>
    <g transform="matrix(0.534466,-0.84519,0.84519,0.534466,753.557,660.34)">
        <g transform="matrix(0.850306,1.09502,1.09502,-0.850306,381.931,-461.092)">
            <path d="M25,-31.394C25,-33.384 23.384,-35 21.394,-35L-21.394,-35C-23.384,-35 -25,-33.384 -25,-31.394L-25,31.394C-25,33.384 -23.384,35 -21.394,35L21.394,35C23.384,35 25,33.384 25,31.394L25,-31.394Z" style="fill:white;stroke:black;stroke-width:1px;"/>
        </g>
        <g transform="matrix(0.850306,1.09502,1.09502,-0.850306,431.787,-464.701)">
            <text x="-19.688px" y="0px" style="font-family:'ArialMT', 'Arial', sans-serif;font-size:30px;">♣</text>
        </g>
    </g>
    <g transform="matrix(0.600742,-0.799443,0.799443,0.600742,739.833,680.223)">
        <g transform="matrix(1.01495,0.944445,0.944445,-1.01495,344.147,-515.088)">
            <path d="M25,-31.394C25,-33.384 23.384,-35 21.394,-35L-21.394,-35C-23.384,-35 -25,-33.384 -25,-31.394L-25,31.394C-25,33.384 -23.384,35 -21.394,35L21.394,35C23.384,35 25,33.384 25,31.394L25,-31.394Z" style="fill:white;stroke:black;stroke-width:1px;"/>
        </g>
        <g transform="matrix(1.01495,0.944445,0.944445,-1.01495,392.78,-526.648)">
            <text x="-19.688px" y="0px" style="font-family:'ArialMT', 'Arial', sans-serif;font-size:30px;">♣</text>
        </g>
    </g>
    <g transform="matrix(0.663123,-0.748511,0.748511,0.663123,724.553,698.937)">
        <g transform="matrix(1.1533,0.769406,0.769406,-1.1533,298.632,-561.779)">
            <path d="M25,-31.394C25,-33.384 23.384,-35 21.394,-35L-21.394,-35C-23.384,-35 -25,-33.384 -25,-31.394L-25,31.394C-25,33.384 -23.384,35 -21.394,35L21.394,35C23.384,35 25,33.384 25,31.394L25,-31.394Z" style="fill:white;stroke:black;stroke-width:1px;"/>
        </g>
        <g transform="matrix(1.1533,0.769406,0.769406,-1.1533,344.78,-580.99)">
            <text x="-19.688px" y="0px" style="font-family:'ArialMT', 'Arial', sans-serif;font-size:30px;">♣</text>
        </g>
    </g>
    <g transform="matrix(0.721202,-0.692724,0.692724,0.721202,707.817,716.361)">
        <g transform="matrix(1.26179,0.574439,0.574439,-1.26179,246.698,-600.054)">
            <path d="M25,-31.394C25,-33.384 23.384,-35 21.394,-35L-21.394,-35C-23.384,-35 -25,-33.384 -25,-31.394L-25,31.394C-25,33.384 -23.384,35 -21.394,35L21.394,35C23.384,35 25,33.384 25,31.394L25,-31.394Z" style="fill:white;stroke:black;stroke-width:1px;"/>
        </g>
        <g transform="matrix(1.26179,0.574439,0.574439,-1.26179,289.167,-626.419)">
            <text x="-19.688px" y="0px" style="font-family:'ArialMT', 'Arial', sans-serif;font-size:30px;">♣</text>
        </g>
    </g>
    <g transform="matrix(0.774605,-0.632445,0.632445,0.774605,689.734,732.381)">
        <g transform="matrix(1.3376,0.364595,0.364595,-1.3376,189.819,-629.035)">
            <path d="M25,-31.394C25,-33.384 23.384,-35 21.394,-35L-21.394,-35C-23.384,-35 -25,-33.384 -25,-31.394L-25,31.394C-25,33.384 -23.384,35 -21.394,35L21.394,35C23.384,35 25,33.384 25,31.394L25,-31.394Z" style="fill:white;stroke:black;stroke-width:1px;"/>
        </g>
        <g transform="matrix(1.3376,0.364595,0.364595,-1.3376,227.509,-661.871)">
            <text x="-19.688px" y="0px" style="font-family:'ArialMT', 'Arial', sans-serif;font-size:30px;">♣</text>
        </g>
    </g>
    <g transform="matrix(0.822984,-0.568065,0.568065,0.822984,670.419,746.895)">
        <g transform="matrix(1.37876,0.145308,0.145308,-1.37876,129.585,-648.091)">
            <path d="M25,-31.394C25,-33.384 23.384,-35 21.394,-35L-21.394,-35C-23.384,-35 -25,-33.384 -25,-31.394L-25,31.394C-25,33.384 -23.384,35 -21.394,35L21.394,35C23.384,35 25,33.384 25,31.394L25,-31.394Z" style="fill:white;stroke:black;stroke-width:1px;"/>
        </g>
        <g transform="matrix(1.37876,0.145308,0.145308,-1.37876,161.52,-686.547)">
            <text x="-19.688px" y="0px" style="font-family:'ArialMT', 'Arial', sans-serif;font-size:30px;">♣</text>
        </g>
    </g>
    <g transform="matrix(0.866025,-0.5,0.5,0.866025,650,759.808)">
        <g transform="matrix(1.38422,-0.0777431,-0.0777431,-1.38422,67.6649,-656.859)">
            <path d="M25,-31.394C25,-33.384 23.384,-35 21.394,-35L-21.394,-35C-23.384,-35 -25,-33.384 -25,-31.394L-25,31.394C-25,33.384 -23.384,35 -21.394,35L21.394,35C23.384,35 25,33.384 25,31.394L25,-31.394Z" style="fill:white;stroke:black;stroke-width:1px;"/>
        </g>
        <g transform="matrix(1.38422,-0.0777431,-0.0777431,-1.38422,93.0169,-699.94)">
            <text x="-19.688px" y="0px" style="font-family:'ArialMT', 'Arial', sans-serif;font-size:30px;">♣</text>
        </g>
    </g>
    <g transform="matrix(0.90345,-0.428693,0.428693,0.90345,628.608,771.035)">
        <g transform="matrix(1.35382,-0.29878,-0.29878,-1.35382,5.75843,-655.251)">
            <path d="M25,-31.394C25,-33.384 23.384,-35 21.394,-35L-21.394,-35C-23.384,-35 -25,-33.384 -25,-31.394L-25,31.394C-25,33.384 -23.384,35 -21.394,35L21.394,35C23.384,35 25,33.384 25,31.394L25,-31.394Z" style="fill:white;stroke:black;stroke-width:1px;"/>
        </g>
        <g transform="matrix(1.35382,-0.29878,-0.29878,-1.35382,23.8714,-701.841)">
            <text x="-19.688px" y="0px" style="font-family:'ArialMT', 'Arial', sans-serif;font-size:30px;">♣</text>
        </g>
    </g>
    <g transform="matrix(0.935016,-0.354605,0.354605,0.935016,606.381,780.505)">
        <g transform="matrix(1.28836,-0.512079,-0.512079,-1.28836,-54.4452,-643.454)">
            <path d="M25,-31.394C25,-33.384 23.384,-35 21.394,-35L-21.394,-35C-23.384,-35 -25,-33.384 -25,-31.394L-25,31.394C-25,33.384 -23.384,35 -21.394,35L21.394,35C23.384,35 25,33.384 25,31.394L25,-31.394Z" style="fill:white;stroke:black;stroke-width:1px;"/>
        </g>
        <g transform="matrix(1.28836,-0.512079,-0.512079,-1.28836,-44.0404,-692.347)">
            <text x="-19.688px" y="0px" style="font-family:'ArialMT', 'Arial', sans-serif;font-size:30px;">♣</text>
        </g>
    </g>
    <g transform="matrix(0.960518,-0.278217,0.278217,0.960518,583.465,788.155)">
        <g transform="matrix(1.18953,-0.712115,-0.712115,-1.18953,-111.313,-621.926)">
            <path d="M25,-31.394C25,-33.384 23.384,-35 21.394,-35L-21.394,-35C-23.384,-35 -25,-33.384 -25,-31.394L-25,31.394C-25,33.384 -23.384,35 -21.394,35L21.394,35C23.384,35 25,33.384 25,31.394L25,-31.394Z" style="fill:white;stroke:black;stroke-width:1px;"/>
        </g>
        <g transform="matrix(1.18953,-0.712115,-0.712115,-1.18953,-108.886,-671.855)">
            <text x="-19.688px" y="0px" style="font-family:'ArialMT', 'Arial', sans-serif;font-size:30px;">♣</text>
        </g>
    </g>
    <g transform="matrix(0.979791,-0.200026,0.200026,0.979791,560.008,793.937)">
        <g transform="matrix(1.0599,-0.893708,-0.893708,-1.0599,-163.312,-591.382)">
            <path d="M25,-31.394C25,-33.384 23.384,-35 21.394,-35L-21.394,-35C-23.384,-35 -25,-33.384 -25,-31.394L-25,31.394C-25,33.384 -23.384,35 -21.394,35L21.394,35C23.384,35 25,33.384 25,31.394L25,-31.394Z" style="fill:white;stroke:black;stroke-width:1px;"/>
        </g>
        <g transform="matrix(1.0599,-0.893708,-0.893708,-1.0599,-168.925,-641.053)">
            <text x="-19.688px" y="0px" style="font-family:'ArialMT', 'Arial', sans-serif;font-size:30px;">♣</text>
        </g>
    </g>
    <g transform="matrix(0.992709,-0.120537,0.120537,0.992709,536.161,797.813)">
        <g transform="matrix(0.902812,-1.05215,-1.05215,-0.902812,-209.046,-552.776)">
            <path d="M25,-31.394C25,-33.384 23.384,-35 21.394,-35L-21.394,-35C-23.384,-35 -25,-33.384 -25,-31.394L-25,31.394C-25,33.384 -23.384,35 -21.394,35L21.394,35C23.384,35 25,33.384 25,31.394L25,-31.394Z" style="fill:white;stroke:black;stroke-width:1px;"/>
        </g>
        <g transform="matrix(0.902812,-1.05215,-1.05215,-0.902812,-222.555,-600.903)">
            <text x="-19.688px" y="0px" style="font-family:'ArialMT', 'Arial', sans-serif;font-size:30px;">♣</text>
        </g>
    </g>
    <g transform="matrix(0.999189,-0.0402659,0.0402659,0.999189,512.08,799.757)">
        <g transform="matrix(0.722343,-1.18335,-1.18335,-0.722343,-247.297,-507.271)">
            <path d="M25,-31.394C25,-33.384 23.384,-35 21.394,-35L-21.394,-35C-23.384,-35 -25,-33.384 -25,-31.394L-25,31.394C-25,33.384 -23.384,35 -21.394,35L21.394,35C23.384,35 25,33.384 25,31.394L25,-31.394Z" style="fill:white;stroke:black;stroke-width:1px;"/>
        </g>
        <g transform="matrix(0.722343,-1.18335,-1.18335,-0.722343,-268.351,-552.609)">
            <text x="-19.688px" y="0px" style="font-family:'ArialMT', 'Arial', sans-serif;font-size:30px;">♣</text>
        </g>
    </g>
    <g transform="matrix(0.999189,0.0402659,-0.0402659,0.999189,487.92,799.757)">
        <g transform="matrix(0.523166,-1.2839,-1.2839,-0.523166,-277.052,-456.216)">
            <path d="M25,-31.394C25,-33.384 23.384,-35 21.394,-35L-21.394,-35C-23.384,-35 -25,-33.384 -25,-31.394L-25,31.394C-25,33.384 -23.384,35 -21.394,35L21.394,35C23.384,35 25,33.384 25,31.394L25,-31.394Z" style="fill:white;stroke:black;stroke-width:1px;"/>
        </g>
        <g transform="matrix(0.523166,-1.2839,-1.2839,-0.523166,-305.105,-497.589)">
            <text x="-19.688px" y="0px" style="font-family:'ArialMT', 'Arial', sans-serif;font-size:30px;">♣</text>
        </g>
    </g>
    <g transform="matrix(0.992709,0.120537,-0.120537,0.992709,463.839,797.813)">
        <g transform="matrix(0.310439,-1.35119,-1.35119,-0.310439,-297.532,-401.1)">
            <path d="M25,-31.394C25,-33.384 23.384,-35 21.394,-35L-21.394,-35C-23.384,-35 -25,-33.384 -25,-31.394L-25,31.394C-25,33.384 -23.384,35 -21.394,35L21.394,35C23.384,35 25,33.384 25,31.394L25,-31.394Z" style="fill:white;stroke:black;stroke-width:1px;"/>
        </g>
        <g transform="matrix(0.310439,-1.35119,-1.35119,-0.310439,-331.859,-437.437)">
            <text x="-19.688px" y="0px" style="font-family:'ArialMT', 'Arial', sans-serif;font-size:30px;">♣</text>
        </g>
    </g>
    <g transform="matrix(0.979791,0.200026,-0.200026,0.979791,439.992,793.937)">
        <g transform="matrix(0.0896725,-1.38349,-1.38349,-0.0896725,-308.213,-343.521)">
            <path d="M25,-31.394C25,-33.384 23.384,-35 21.394,-35L-21.394,-35C-23.384,-35 -25,-33.384 -25,-31.394L-25,31.394C-25,33.384 -23.384,35 -21.394,35L21.394,35C23.384,35 25,33.384 25,31.394L25,-31.394Z" style="fill:white;stroke:black;stroke-width:1px;"/>
        </g>
        <g transform="matrix(0.0896725,-1.38349,-1.38349,-0.0896725,-347.924,-373.881)">
            <text x="-19.688px" y="0px" style="font-family:'ArialMT', 'Arial', sans-serif;font-size:30px;">♣</text>
        </g>
    </g>
    <g transform="matrix(0.960518,0.278217,-0.278217,0.960518,416.535,788.155)">
        <g transform="matrix(-0.133417,-1.37996,-1.37996,0.133417,-308.837,-285.137)">
            <path d="M25,-31.394C25,-33.384 23.384,-35 21.394,-35L-21.394,-35C-23.384,-35 -25,-33.384 -25,-31.394L-25,31.394C-25,33.384 -23.384,35 -21.394,35L21.394,35C23.384,35 25,33.384 25,31.394L25,-31.394Z" style="fill:white;stroke:black;stroke-width:1px;"/>
        </g>
        <g transform="matrix(-0.133417,-1.37996,-1.37996,0.133417,-352.904,-308.733)">
            <text x="-19.688px" y="0px" style="font-family:'ArialMT', 'Arial', sans-serif;font-size:30px;">♣</text>
        </g>
    </g>
    <g transform="matrix(0.935016,0.354605,-0.354605,0.935016,393.619,780.505)">
        <g transform="matrix(-0.353051,-1.34069,-1.34069,0.353051,-299.421,-227.626)">
            <path d="M25,-31.394C25,-33.384 23.384,-35 21.394,-35L-21.394,-35C-23.384,-35 -25,-33.384 -25,-31.394L-25,31.394C-25,33.384 -23.384,35 -21.394,35L21.394,35C23.384,35 25,33.384 25,31.394L25,-31.394Z" style="fill:white;stroke:black;stroke-width:1px;"/>
        </g>
        <g transform="matrix(-0.353051,-1.34069,-1.34069,0.353051,-346.703,-243.848)">
            <text x="-19.688px" y="0px" style="font-family:'ArialMT', 'Arial', sans-serif;font-size:30px;">♣</text>
        </g>
    </g>
    <g transform="matrix(0.90345,0.428693,-0.428693,0.90345,371.392,771.035)">
        <g transform="matrix(-0.563541,-1.2667,-1.2667,0.563541,-280.255,-172.641)">
            <path d="M25,-31.394C25,-33.384 23.384,-35 21.394,-35L-21.394,-35C-23.384,-35 -25,-33.384 -25,-31.394L-25,31.394C-25,33.384 -23.384,35 -21.394,35L21.394,35C23.384,35 25,33.384 25,31.394L25,-31.394Z" style="fill:white;stroke:black;stroke-width:1px;"/>
        </g>
        <g transform="matrix(-0.563541,-1.2667,-1.2667,0.563541,-329.527,-181.069)">
            <text x="-19.688px" y="0px" style="font-family:'ArialMT', 'Arial', sans-serif;font-size:30px;">♣</text>
        </g>
    </g>
    <g transform="matrix(0.866025,0.5,-0.5,0.866025,350,759.808)">
        <g transform="matrix(-0.759435,-1.15989,-1.15989,0.759435,-251.894,-121.764)">
            <path d="M25,-31.394C25,-33.384 23.384,-35 21.394,-35L-21.394,-35C-23.384,-35 -25,-33.384 -25,-31.394L-25,31.394C-25,33.384 -23.384,35 -21.394,35L21.394,35C23.384,35 25,33.384 25,31.394L25,-31.394Z" style="fill:white;stroke:black;stroke-width:1px;"/>
        </g>
        <g transform="matrix(-0.759435,-1.15989,-1.15989,0.759435,-301.879,-122.179)">
            <text x="-19.688px" y="0px" style="font-family:'ArialMT', 'Arial', sans-serif;font-size:30px;">♣</text>
        </g>
    </g>
    <g transform="matrix(0.822984,0.568065,-0.568065,0.822984,329.581,746.895)">
        <g transform="matrix(-0.935661,-1.02305,-1.02305,0.935661,-215.143,-76.4666)">
            <path d="M25,-31.394C25,-33.384 23.384,-35 21.394,-35L-21.394,-35C-23.384,-35 -25,-33.384 -25,-31.394L-25,31.394C-25,33.384 -23.384,35 -21.394,35L21.394,35C23.384,35 25,33.384 25,31.394L25,-31.394Z" style="fill:white;stroke:black;stroke-width:1px;"/>
        </g>
        <g transform="matrix(-0.935661,-1.02305,-1.02305,0.935661,-264.548,-68.8578)">
            <text x="-19.688px" y="0px" style="font-family:'ArialMT', 'Arial', sans-serif;font-size:30px;">♣</text>
        </g>
    </g>
    <g transform="matrix(0.774605,0.632445,-0.632445,0.774605,310.266,732.381)">
        <g transform="matrix(-1.08765,-0.859713,-0.859713,1.08765,-171.039,-38.0681)">
            <path d="M25,-31.394C25,-33.384 23.384,-35 21.394,-35L-21.394,-35C-23.384,-35 -25,-33.384 -25,-31.394L-25,31.394C-25,33.384 -23.384,35 -21.394,35L21.394,35C23.384,35 25,33.384 25,31.394L25,-31.394Z" style="fill:white;stroke:black;stroke-width:1px;"/>
        </g>
        <g transform="matrix(-1.08765,-0.859713,-0.859713,1.08765,-218.584,-22.6327)">
            <text x="-19.688px" y="0px" style="font-family:'ArialMT', 'Arial', sans-serif;font-size:30px;">♣</text>
        </g>
    </g>
    <g transform="matrix(0.721202,0.692724,-0.692724,0.721202,292.183,716.361)">
        <g transform="matrix(-1.21148,-0.674108,-0.674108,1.21148,-120.818,-7.70302)">
            <path d="M25,-31.394C25,-33.384 23.384,-35 21.394,-35L-21.394,-35C-23.384,-35 -25,-33.384 -25,-31.394L-25,31.394C-25,33.384 -23.384,35 -21.394,35L21.394,35C23.384,35 25,33.384 25,31.394L25,-31.394Z" style="fill:white;stroke:black;stroke-width:1px;"/>
        </g>
        <g transform="matrix(-1.21148,-0.674108,-0.674108,1.21148,-165.271,15.1591)">
            <text x="-19.688px" y="0px" style="font-family:'ArialMT', 'Arial', sans-serif;font-size:30px;">♣</text>
        </g>
    </g>
    <g transform="matrix(0.663123,0.748511,-0.748511,0.663123,275.447,698.937)">
        <g transform="matrix(-1.30392,-0.471044,-0.471044,1.30392,-65.8881,13.7105)">
            <path d="M25,-31.394C25,-33.384 23.384,-35 21.394,-35L-21.394,-35C-23.384,-35 -25,-33.384 -25,-31.394L-25,31.394C-25,33.384 -23.384,35 -21.394,35L21.394,35C23.384,35 25,33.384 25,31.394L25,-31.394Z" style="fill:white;stroke:black;stroke-width:1px;"/>
        </g>
        <g transform="matrix(-1.30392,-0.471044,-0.471044,1.30392,-106.098,43.4073)">
            <text x="-19.688px" y="0px" style="font-family:'ArialMT', 'Arial', sans-serif;font-size:30px;">♣</text>
        </g>
    </g>
    <g transform="matrix(0.600742,0.799443,-0.799443,0.600742,260.167,680.223)">
        <g transform="matrix(-1.3626,-0.255781,-0.255781,1.3626,-7.78699,25.4951)">
            <path d="M25,-31.394C25,-33.384 23.384,-35 21.394,-35L-21.394,-35C-23.384,-35 -25,-33.384 -25,-31.394L-25,31.394C-25,33.384 -23.384,35 -21.394,35L21.394,35C23.384,35 25,33.384 25,31.394L25,-31.394Z" style="fill:white;stroke:black;stroke-width:1px;"/>
        </g>
        <g transform="matrix(-1.3626,-0.255781,-0.255781,1.3626,-42.7124,61.2574)">
            <text x="-19.688px" y="0px" style="font-family:'ArialMT', 'Arial', sans-serif;font-size:30px;">♣</text>
        </g>
    </g>
    <g transform="matrix(0.534466,0.84519,-0.84519,0.534466,246.443,660.34)">
        <g transform="matrix(-1.38598,-0.0338921,-0.0338921,1.38598,51.8543,27.2326)">
            <path d="M25,-31.394C25,-33.384 23.384,-35 21.394,-35L-21.394,-35C-23.384,-35 -25,-33.384 -25,-31.394L-25,31.394C-25,33.384 -23.384,35 -21.394,35L21.394,35C23.384,35 25,33.384 25,31.394L25,-31.394Z" style="fill:white;stroke:black;stroke-width:1px;"/>
        </g>
        <g transform="matrix(-1.38598,-0.0338921,-0.0338921,1.38598,23.1179,68.1343)">
            <text x="-19.688px" y="0px" style="font-family:'ArialMT', 'Arial', sans-serif;font-size:30px;">♣</text>
        </g>
    </g>
    <g transform="matrix(0.464723,0.885456,-0.885456,0.464723,234.363,639.417)">
        <g transform="matrix(-1.37347,0.188874,0.188874,1.37347,111.357,18.7757)">
            <path d="M25,-31.394C25,-33.384 23.384,-35 21.394,-35L-21.394,-35C-23.384,-35 -25,-33.384 -25,-31.394L-25,31.394C-25,33.384 -23.384,35 -21.394,35L21.394,35C23.384,35 25,33.384 25,31.394L25,-31.394Z" style="fill:white;stroke:black;stroke-width:1px;"/>
        </g>
        <g transform="matrix(-1.37347,0.188874,0.188874,1.37347,89.5536,63.7573)">
            <text x="-19.688px" y="0px" style="font-family:'ArialMT', 'Arial', sans-serif;font-size:30px;">♣</text>
        </g>
    </g>
    <g transform="matrix(0.391967,0.919979,-0.919979,0.391967,224.006,617.59)">
        <g transform="matrix(-1.32539,0.406749,0.406749,1.32539,169.037,0.251934)">
            <path d="M25,-31.394C25,-33.384 23.384,-35 21.394,-35L-21.394,-35C-23.384,-35 -25,-33.384 -25,-31.394L-25,31.394C-25,33.384 -23.384,35 -21.394,35L21.394,35C23.384,35 25,33.384 25,31.394L25,-31.394Z" style="fill:white;stroke:black;stroke-width:1px;"/>
        </g>
        <g transform="matrix(-1.32539,0.406749,0.406749,1.32539,154.732,48.1485)">
            <text x="-19.688px" y="0px" style="font-family:'ArialMT', 'Arial', sans-serif;font-size:30px;">♣</text>
        </g>
    </g>
    <g transform="matrix(0.316668,0.948536,-0.948536,0.316668,215.439,595)">
        <g transform="matrix(-1.24298,0.614088,0.614088,1.24298,223.252,-27.9384)">
            <path d="M25,-31.394C25,-33.384 23.384,-35 21.394,-35L-21.394,-35C-23.384,-35 -25,-33.384 -25,-31.394L-25,31.394C-25,33.384 -23.384,35 -21.394,35L21.394,35C23.384,35 25,33.384 25,31.394L25,-31.394Z" style="fill:white;stroke:black;stroke-width:1px;"/>
        </g>
        <g transform="matrix(-1.24298,0.614088,0.614088,1.24298,216.815,21.6327)">
            <text x="-19.688px" y="0px" style="font-family:'ArialMT', 'Arial', sans-serif;font-size:30px;">♣</text>
        </g>
    </g>
    <g transform="matrix(0.239316,0.970942,-0.970942,0.239316,208.717,571.795)">
        <g transform="matrix(-1.12837,0.805524,0.805524,1.12837,272.442,-65.1326)">
            <path d="M25,-31.394C25,-33.384 23.384,-35 21.394,-35L-21.394,-35C-23.384,-35 -25,-33.384 -25,-31.394L-25,31.394C-25,33.384 -23.384,35 -21.394,35L21.394,35C23.384,35 25,33.384 25,31.394L25,-31.394Z" style="fill:white;stroke:black;stroke-width:1px;"/>
        </g>
        <g transform="matrix(-1.12837,0.805524,0.805524,1.12837,274.041,-15.1709)">
            <text x="-19.688px" y="0px" style="font-family:'ArialMT', 'Arial', sans-serif;font-size:30px;">♣</text>
        </g>
    </g>
    <g transform="matrix(0.160411,0.98705,-0.98705,0.160411,203.885,548.123)">
        <g transform="matrix(-0.984547,0.976096,0.976096,0.984547,315.174,-110.422)">
            <path d="M25,-31.394C25,-33.384 23.384,-35 21.394,-35L-21.394,-35C-23.384,-35 -25,-33.384 -25,-31.394L-25,31.394C-25,33.384 -23.384,35 -21.394,35L21.394,35C23.384,35 25,33.384 25,31.394L25,-31.394Z" style="fill:white;stroke:black;stroke-width:1px;"/>
        </g>
        <g transform="matrix(-0.984547,0.976096,0.976096,0.984547,324.766,-61.3635)">
            <text x="-19.688px" y="0px" style="font-family:'ArialMT', 'Arial', sans-serif;font-size:30px;">♣</text>
        </g>
    </g>
    <g transform="matrix(0.0804666,0.996757,-0.996757,0.0804666,200.973,524.14)">
        <g transform="matrix(-0.815221,1.12139,1.12139,0.815221,350.177,-162.675)">
            <path d="M25,-31.394C25,-33.384 23.384,-35 21.394,-35L-21.394,-35C-23.384,-35 -25,-33.384 -25,-31.394L-25,31.394C-25,33.384 -23.384,35 -21.394,35L21.394,35C23.384,35 25,33.384 25,31.394L25,-31.394Z" style="fill:white;stroke:black;stroke-width:1px;"/>
        </g>
        <g transform="matrix(-0.815221,1.12139,1.12139,0.815221,367.515,-115.79)">
            <text x="-19.688px" y="0px" style="font-family:'ArialMT', 'Arial', sans-serif;font-size:30px;">♣</text>
        </g>
    </g>
    <g transform="matrix(-3.82857e-16,1,-1,-3.82857e-16,200,500)">
        <g transform="matrix(-0.62478,1.23764,1.23764,0.62478,376.378,-220.566)">
            <path d="M25,-31.394C25,-33.384 23.384,-35 21.394,-35L-21.394,-35C-23.384,-35 -25,-33.384 -25,-31.394L-25,31.394C-25,33.384 -23.384,35 -21.394,35L21.394,35C23.384,35 25,33.384 25,31.394L25,-31.394Z" style="fill:white;stroke:black;stroke-width:1px;"/>
        </g>
        <g transform="matrix(-0.62478,1.23764,1.23764,0.62478,401.012,-177.07)">
            <text x="-19.688px" y="0px" style="font-family:'ArialMT', 'Arial', sans-serif;font-size:30px;">♣</text>
        </g>
    </g>
    <g transform="matrix(-0.0804666,0.996757,-0.996757,-0.0804666,200.973,475.86)">
        <g transform="matrix(-0.418159,1.32183,1.32183,0.418159,392.93,-282.612)">
            <path d="M25,-31.394C25,-33.384 23.384,-35 21.394,-35L-21.394,-35C-23.384,-35 -25,-33.384 -25,-31.394L-25,31.394C-25,33.384 -23.384,35 -21.394,35L21.394,35C23.384,35 25,33.384 25,31.394L25,-31.394Z" style="fill:white;stroke:black;stroke-width:1px;"/>
        </g>
        <g transform="matrix(-0.418159,1.32183,1.32183,0.418159,424.221,-243.631)">
            <text x="-19.688px" y="0px" style="font-family:'ArialMT', 'Arial', sans-serif;font-size:30px;">♣</text>
        </g>
    </g>
    <g transform="matrix(-0.160411,0.98705,-0.98705,-0.160411,203.885,451.877)">
        <g transform="matrix(-0.200707,1.37179,1.37179,0.200707,399.234,-347.206)">
            <path d="M25,-31.394C25,-33.384 23.384,-35 21.394,-35L-21.394,-35C-23.384,-35 -25,-33.384 -25,-31.394L-25,31.394C-25,33.384 -23.384,35 -21.394,35L21.394,35C23.384,35 25,33.384 25,31.394L25,-31.394Z" style="fill:white;stroke:black;stroke-width:1px;"/>
        </g>
        <g transform="matrix(-0.200707,1.37179,1.37179,0.200707,436.374,-313.749)">
            <text x="-19.688px" y="0px" style="font-family:'ArialMT', 'Arial', sans-serif;font-size:30px;">♣</text>
        </g>
    </g>
    <g transform="matrix(-0.239316,0.970942,-0.970942,-0.239316,208.717,428.205)">
        <g transform="matrix(0.0219433,1.38622,1.38622,-0.0219433,394.96,-412.663)">
            <path d="M25,-31.394C25,-33.384 23.384,-35 21.394,-35L-21.394,-35C-23.384,-35 -25,-33.384 -25,-31.394L-25,31.394C-25,33.384 -23.384,35 -21.394,35L21.394,35C23.384,35 25,33.384 25,31.394L25,-31.394Z" style="fill:white;stroke:black;stroke-width:1px;"/>
        </g>
        <g transform="matrix(0.0219433,1.38622,1.38622,-0.0219433,436.985,-385.596)">
            <text x="-19.688px" y="0px" style="font-family:'ArialMT', 'Arial', sans-serif;font-size:30px;">♣</text>
        </g>
    </g>
    <g transform="matrix(-0.316668,0.948536,-0.948536,-0.316668,215.439,405)">
        <g transform="matrix(0.244025,1.36475,1.36475,-0.244025,380.05,-477.261)">
            <path d="M25,-31.394C25,-33.384 23.384,-35 21.394,-35L-21.394,-35C-23.384,-35 -25,-33.384 -25,-31.394L-25,31.394C-25,33.384 -23.384,35 -21.394,35L21.394,35C23.384,35 25,33.384 25,31.394L25,-31.394Z" style="fill:white;stroke:black;stroke-width:1px;"/>
        </g>
        <g transform="matrix(0.244025,1.36475,1.36475,-0.244025,425.874,-457.287)">
            <text x="-19.688px" y="0px" style="font-family:'ArialMT', 'Arial', sans-serif;font-size:30px;">♣</text>
        </g>
    </g>
    <g transform="matrix(-0.391967,0.919979,-0.919979,-0.391967,224.006,382.41)">
        <g transform="matrix(0.459787,1.30793,1.30793,-0.459787,354.728,-539.288)">
            <path d="M25,-31.394C25,-33.384 23.384,-35 21.394,-35L-21.394,-35C-23.384,-35 -25,-33.384 -25,-31.394L-25,31.394C-25,33.384 -23.384,35 -21.394,35L21.394,35C23.384,35 25,33.384 25,31.394L25,-31.394Z" style="fill:white;stroke:black;stroke-width:1px;"/>
        </g>
        <g transform="matrix(0.459787,1.30793,1.30793,-0.459787,403.161,-526.923)">
            <text x="-19.688px" y="0px" style="font-family:'ArialMT', 'Arial', sans-serif;font-size:30px;">♣</text>
        </g>
    </g>
    <g transform="matrix(-0.464723,0.885456,-0.885456,-0.464723,234.363,360.583)">
        <g transform="matrix(0.66364,1.21724,1.21724,-0.66364,319.487,-597.086)">
            <path d="M25,-31.394C25,-33.384 23.384,-35 21.394,-35L-21.394,-35C-23.384,-35 -25,-33.384 -25,-31.394L-25,31.394C-25,33.384 -23.384,35 -21.394,35L21.394,35C23.384,35 25,33.384 25,31.394L25,-31.394Z" style="fill:white;stroke:black;stroke-width:1px;"/>
        </g>
        <g transform="matrix(0.66364,1.21724,1.21724,-0.66364,369.277,-592.65)">
            <text x="-19.688px" y="0px" style="font-family:'ArialMT', 'Arial', sans-serif;font-size:30px;">♣</text>
        </g>
    </g>
    <g transform="matrix(-0.534466,0.84519,-0.84519,-0.534466,246.443,339.66)">
        <g transform="matrix(0.850306,1.09502,1.09502,-0.850306,275.084,-649.091)">
            <path d="M25,-31.394C25,-33.384 23.384,-35 21.394,-35L-21.394,-35C-23.384,-35 -25,-33.384 -25,-31.394L-25,31.394C-25,33.384 -23.384,35 -21.394,35L21.394,35C23.384,35 25,33.384 25,31.394L25,-31.394Z" style="fill:white;stroke:black;stroke-width:1px;"/>
        </g>
        <g transform="matrix(0.850306,1.09502,1.09502,-0.850306,324.941,-652.7)">
            <text x="-19.688px" y="0px" style="font-family:'ArialMT', 'Arial', sans-serif;font-size:30px;">♣</text>
        </g>
    </g>
    <g transform="matrix(-0.600742,0.799443,-0.799443,-0.600742,260.167,319.777)">
        <g transform="matrix(1.01495,0.944445,0.944445,-1.01495,222.52,-693.881)">
            <path d="M25,-31.394C25,-33.384 23.384,-35 21.394,-35L-21.394,-35C-23.384,-35 -25,-33.384 -25,-31.394L-25,31.394C-25,33.384 -23.384,35 -21.394,35L21.394,35C23.384,35 25,33.384 25,31.394L25,-31.394Z" style="fill:white;stroke:black;stroke-width:1px;"/>
        </g>
        <g transform="matrix(1.01495,0.944445,0.944445,-1.01495,271.152,-705.44)">
            <text x="-19.688px" y="0px" style="font-family:'ArialMT', 'Arial', sans-serif;font-size:30px;">♣</text>
        </g>
    </g>
    <g transform="matrix(-0.663123,0.748511,-0.748511,-0.663123,275.447,301.063)">
        <g transform="matrix(1.1533,0.769406,0.769406,-1.1533,163.012,-730.204)">
            <path d="M25,-31.394C25,-33.384 23.384,-35 21.394,-35L-21.394,-35C-23.384,-35 -25,-33.384 -25,-31.394L-25,31.394C-25,33.384 -23.384,35 -21.394,35L21.394,35C23.384,35 25,33.384 25,31.394L25,-31.394Z" style="fill:white;stroke:black;stroke-width:1px;"/>
        </g>
        <g transform="matrix(1.1533,0.769406,0.769406,-1.1533,209.16,-749.415)">
            <text x="-19.688px" y="0px" style="font-family:'ArialMT', 'Arial', sans-serif;font-size:30px;">♣</text>
        </g>
    </g>
    <g transform="matrix(-0.721202,0.692724,-0.692724,-0.721202,292.183,283.639)">
        <g transform="matrix(1.26179,0.574439,0.574439,-1.26179,97.9652,-757.021)">
            <path d="M25,-31.394C25,-33.384 23.384,-35 21.394,-35L-21.394,-35C-23.384,-35 -25,-33.384 -25,-31.394L-25,31.394C-25,33.384 -23.384,35 -21.394,35L21.394,35C23.384,35 25,33.384 25,31.394L25,-31.394Z" style="fill:white;stroke:black;stroke-width:1px;"/>
        </g>
        <g transform="matrix(1.26179,0.574439,0.574439,-1.26179,140.434,-783.386)">
            <text x="-19.688px" y="0px" style="font-family:'ArialMT', 'Arial', sans-serif;font-size:30px;">♣</text>
        </g>
    </g>
    <g transform="matrix(-0.774605,0.632445,-0.632445,-0.774605,310.266,267.619)">
        <g transform="matrix(1.3376,0.364595,0.364595,-1.3376,28.9378,-773.524)">
            <path d="M25,-31.394C25,-33.384 23.384,-35 21.394,-35L-21.394,-35C-23.384,-35 -25,-33.384 -25,-31.394L-25,31.394C-25,33.384 -23.384,35 -21.394,35L21.394,35C23.384,35 25,33.384 25,31.394L25,-31.394Z" style="fill:white;stroke:black;stroke-width:1px;"/>
        </g>
        <g transform="matrix(1.3376,0.364595,0.364595,-1.3376,66.6276,-806.36)">
            <text x="-19.688px" y="0px" style="font-family:'ArialMT', 'Arial', sans-serif;font-size:30px;">♣</text>
        </g>
    </g>
    <g transform="matrix(-0.822984,0.568065,-0.568065,-0.822984,329.581,253.105)">
        <g transform="matrix(1.37876,0.145308,0.145308,-1.37876,-42.4008,-779.166)">
            <path d="M25,-31.394C25,-33.384 23.384,-35 21.394,-35L-21.394,-35C-23.384,-35 -25,-33.384 -25,-31.394L-25,31.394C-25,33.384 -23.384,35 -21.394,35L21.394,35C23.384,35 25,33.384 25,31.394L25,-31.394Z" style="fill:white;stroke:black;stroke-width:1px;"/>
        </g>
        <g transform="matrix(-1.75916,-0.289219,0.289219,-1.75916,-30.4939,-777.904)">
            <text x="0px" y="0px" style="font-family:'AtkinsonHyperlegible-Regular', 'Atkinson Hyperlegible';font-size:30px;">C</text>
        </g>
        <g transform="matrix(1.37876,0.145308,0.145308,-1.37876,-10.4664,-817.623)">
            <text x="-19.688px" y="0px" style="font-family:'ArialMT', 'Arial', sans-serif;font-size:30px;">♣</text>
        </g>
    </g>
</svg>
