<?xml version="1.0" standalone="no"?>
<!DOCTYPE svg PUBLIC "-//W3C//DTD SVG 20010904//EN"
 "http://www.w3.org/TR/2001/REC-SVG-20010904/DTD/svg10.dtd">
<svg version="1.0" xmlns="http://www.w3.org/2000/svg"
 width="1000.000000pt" height="1000.000000pt" viewBox="0 0 1000.000000 1000.000000"
 preserveAspectRatio="xMidYMid meet">
<metadata>
Created by potrace 1.14, written by Peter Selinger 2001-2017
</metadata>
<g transform="translate(0.000000,1000.000000) scale(0.100000,-0.100000)"
fill="#000000" stroke="none">
<path d="M5887 9603 c-1 -1 -48 -3 -103 -6 -56 -2 -107 -7 -112 -11 -6 -3 -35
-7 -64 -7 -29 0 -82 -5 -118 -9 -36 -5 -87 -12 -115 -16 -27 -3 -58 -10 -67
-15 -10 -5 -43 -12 -75 -14 -70 -6 -284 -53 -299 -66 -6 -5 -33 -12 -60 -15
-27 -3 -56 -8 -64 -11 -8 -4 -17 -7 -20 -8 -51 -13 -168 -52 -210 -70 -30 -13
-68 -26 -85 -29 -40 -7 -194 -69 -277 -112 -37 -19 -72 -34 -78 -34 -15 0
-239 -109 -245 -120 -3 -5 -27 -19 -53 -31 -91 -42 -232 -125 -280 -166 -18
-15 -46 -33 -61 -40 -37 -16 -174 -112 -234 -166 -27 -23 -64 -51 -82 -62 -43
-26 -133 -103 -213 -182 -35 -35 -66 -63 -70 -63 -7 0 -123 -116 -255 -255
-88 -93 -197 -222 -197 -234 0 -4 -19 -28 -42 -53 -51 -54 -158 -202 -174
-239 -7 -14 -25 -41 -41 -60 -36 -42 -141 -216 -173 -286 -13 -29 -26 -53 -30
-53 -9 0 -130 -242 -130 -259 0 -14 -29 -74 -40 -81 -9 -6 -95 -225 -104 -265
-4 -16 -16 -48 -26 -70 -25 -53 -87 -251 -93 -295 -3 -19 -12 -53 -20 -75 -22
-55 -64 -242 -65 -286 -1 -20 -6 -48 -12 -63 -15 -40 -41 -218 -45 -303 -2
-40 -6 -77 -10 -82 -10 -17 -18 -203 -17 -431 0 -305 15 -552 35 -600 4 -8 9
-44 11 -80 5 -82 34 -244 51 -290 7 -20 16 -60 19 -90 4 -30 11 -66 16 -80 5
-14 16 -54 25 -90 9 -36 24 -85 34 -110 11 -25 22 -61 25 -80 7 -44 69 -219
102 -284 13 -28 24 -56 24 -64 0 -20 100 -240 132 -291 15 -25 28 -52 28 -60
0 -9 9 -31 21 -50 12 -19 35 -62 53 -95 17 -34 43 -77 58 -97 15 -19 34 -51
42 -70 18 -42 137 -224 171 -259 13 -14 31 -38 39 -55 21 -41 100 -144 166
-217 30 -33 62 -71 70 -84 17 -24 147 -170 168 -188 26 -21 77 -72 98 -96 34
-41 184 -180 194 -180 5 0 33 -24 63 -52 66 -65 167 -144 244 -194 32 -20 60
-41 61 -45 5 -12 226 -159 239 -159 5 0 30 -15 54 -32 59 -43 236 -142 281
-157 20 -7 48 -21 62 -32 14 -11 51 -31 83 -45 32 -14 80 -37 106 -50 27 -13
57 -24 66 -24 10 0 44 -13 77 -29 62 -31 245 -100 279 -105 39 -7 80 -19 105
-32 30 -16 248 -74 277 -74 11 0 47 -8 79 -19 33 -10 77 -21 99 -24 22 -2 60
-9 85 -15 25 -6 70 -12 100 -13 30 -1 66 -6 80 -12 14 -5 39 -10 55 -12 65 -7
193 -18 250 -21 106 -6 629 -6 675 0 25 4 93 10 152 15 59 5 110 11 115 14 4
3 31 6 58 8 28 1 61 7 75 12 30 11 60 17 108 21 62 5 244 47 294 67 26 10 59
19 73 19 33 0 211 54 280 85 28 12 72 28 100 34 27 7 73 23 102 37 30 13 57
24 62 24 4 0 38 16 76 36 37 20 78 38 91 40 30 6 192 86 259 129 28 18 90 53
139 79 133 70 176 97 177 109 1 7 2 19 2 28 0 14 -120 241 -260 494 -18 33
-63 115 -99 183 -66 122 -89 148 -123 137 -10 -3 -103 -52 -207 -108 -226
-122 -489 -243 -594 -272 -8 -3 -49 -16 -90 -30 -41 -14 -88 -30 -105 -35 -40
-12 -263 -68 -295 -73 -14 -3 -63 -12 -110 -21 -316 -58 -765 -69 -1085 -26
-44 6 -96 13 -115 16 -210 27 -547 121 -809 226 -106 42 -392 181 -455 221
-11 7 -69 43 -130 81 -229 142 -411 289 -631 510 -175 175 -215 221 -348 400
-359 479 -612 1092 -687 1666 -6 47 -13 96 -16 110 -24 139 -24 664 0 800 3
14 7 52 11 85 30 309 155 742 309 1069 25 53 46 99 46 100 0 2 37 68 81 147
176 310 359 550 619 809 344 343 711 589 1160 779 41 18 84 36 95 41 55 25
306 103 430 134 218 55 415 86 644 103 171 13 507 7 651 -12 14 -1 50 -6 80
-10 75 -9 282 -45 290 -50 4 -2 22 -7 41 -10 61 -10 221 -55 354 -99 184 -62
350 -133 576 -247 166 -85 200 -98 221 -90 36 14 434 804 425 843 -6 23 -30
39 -150 99 -78 39 -158 81 -177 92 -47 29 -218 107 -255 117 -29 8 -85 32
-115 49 -25 15 -216 81 -234 81 -9 0 -52 13 -94 29 -97 36 -221 71 -277 77
-24 2 -56 9 -70 14 -46 18 -266 60 -311 60 -23 0 -54 4 -68 10 -59 22 -291 38
-614 42 -118 2 -214 2 -215 1z"/>
</g>
</svg>
